<svg width="24" height="24" viewBox="0 0 24 24" fill="none" xmlns="http://www.w3.org/2000/svg">
<g clip-path="url(#clip0_3754_27900)">
<mask id="mask0_3754_27900" style="mask-type:luminance" maskUnits="userSpaceOnUse" x="0" y="0" width="24" height="24">
<path d="M24 0H0V24H24V0Z" fill="white"/>
</mask>
<g mask="url(#mask0_3754_27900)">
<path d="M19.3697 4.88914L13.5097 2.27914C12.6497 1.89914 11.3497 1.89914 10.4897 2.27914L4.62969 4.88914C3.14969 5.54914 2.92969 6.44914 2.92969 6.92914C2.92969 7.40914 3.14969 8.30914 4.62969 8.96914L10.4897 11.5791C10.9197 11.7691 11.4597 11.8691 11.9997 11.8691C12.5397 11.8691 13.0797 11.7691 13.5097 11.5791L19.3697 8.96914C20.8497 8.30914 21.0697 7.40914 21.0697 6.92914C21.0697 6.44914 20.8597 5.54914 19.3697 4.88914Z" fill="#1A237E"/>
<path opacity="0.4" d="M11.9993 17.04C11.6193 17.04 11.2393 16.96 10.8893 16.81L4.14934 13.81C3.11934 13.35 2.31934 12.12 2.31934 10.99C2.31934 10.58 2.64934 10.25 3.05934 10.25C3.46934 10.25 3.79934 10.58 3.79934 10.99C3.79934 11.53 4.24934 12.23 4.74934 12.45L11.4893 15.45C11.8093 15.59 12.1793 15.59 12.4993 15.45L19.2393 12.45C19.7393 12.23 20.1893 11.54 20.1893 10.99C20.1893 10.58 20.5193 10.25 20.9293 10.25C21.3393 10.25 21.6693 10.58 21.6693 10.99C21.6693 12.11 20.8693 13.35 19.8393 13.81L13.0993 16.81C12.7593 16.96 12.3793 17.04 11.9993 17.04Z" fill="#1A237E"/>
<path opacity="0.4" d="M11.9993 22.0009C11.6193 22.0009 11.2393 21.9209 10.8893 21.7709L4.14934 18.7709C3.03934 18.2809 2.31934 17.1709 2.31934 15.9509C2.31934 15.5409 2.64934 15.2109 3.05934 15.2109C3.46934 15.2109 3.79934 15.5409 3.79934 15.9509C3.79934 16.5809 4.16934 17.1509 4.74934 17.4109L11.4893 20.4109C11.8093 20.5509 12.1793 20.5509 12.4993 20.4109L19.2393 17.4109C19.8093 17.1609 20.1893 16.5809 20.1893 15.9509C20.1893 15.5409 20.5193 15.2109 20.9293 15.2109C21.3393 15.2109 21.6693 15.5409 21.6693 15.9509C21.6693 17.1709 20.9493 18.2709 19.8393 18.7709L13.0993 21.7709C12.7593 21.9209 12.3793 22.0009 11.9993 22.0009Z" fill="#1A237E"/>
</g>
</g>
<defs>
<clipPath id="clip0_3754_27900">
<rect width="24" height="24" fill="white"/>
</clipPath>
</defs>
</svg>
