<svg width="24" height="24" viewBox="0 0 24 24" fill="none" xmlns="http://www.w3.org/2000/svg">
<g clip-path="url(#clip0_3754_27922)">
<mask id="mask0_3754_27922" style="mask-type:luminance" maskUnits="userSpaceOnUse" x="0" y="0" width="24" height="24">
<path d="M24 0H0V24H24V0Z" fill="white"/>
</mask>
<g mask="url(#mask0_3754_27922)">
<path d="M17.4502 17.2999C15.7702 17.2999 14.2202 16.5099 13.2102 15.1199C12.9702 14.7899 13.0402 14.3199 13.3702 14.0699C13.7002 13.8199 14.1702 13.8999 14.4202 14.2299C15.1502 15.2199 16.2502 15.7899 17.4502 15.7899C19.5402 15.7899 21.2502 14.0899 21.2502 11.9899C21.2502 9.88992 19.5502 8.18992 17.4502 8.18992C16.0302 8.18992 14.6902 8.94992 13.9602 10.1599L11.3102 14.5699C10.3102 16.2399 8.48023 17.2699 6.54023 17.2699C3.62023 17.2699 1.24023 14.8899 1.24023 11.9699C1.24023 9.04992 3.62023 6.66992 6.54023 6.66992C8.22023 6.66992 9.77023 7.45992 10.7802 8.84992C11.0202 9.17992 10.9502 9.64992 10.6202 9.89992C10.2802 10.1499 9.82023 10.0699 9.57023 9.73992C8.85023 8.76992 7.75023 8.19992 6.55023 8.19992C4.46023 8.19992 2.75023 9.89992 2.75023 11.9999C2.75023 14.0999 4.45023 15.7999 6.55023 15.7999C7.97023 15.7999 9.31023 15.0399 10.0402 13.8299L12.6902 9.41992C13.6902 7.74992 15.5202 6.71992 17.4602 6.71992C20.3802 6.71992 22.7602 9.09992 22.7602 12.0199C22.7602 14.9399 20.3702 17.2999 17.4502 17.2999Z" fill="#1A237E"/>
<path opacity="0.5" d="M7 15C8.65686 15 10 13.6569 10 12C10 10.3431 8.65686 9 7 9C5.34314 9 4 10.3431 4 12C4 13.6569 5.34314 15 7 15Z" fill="#1A237E"/>
<path opacity="0.5" d="M17 15C18.6569 15 20 13.6569 20 12C20 10.3431 18.6569 9 17 9C15.3431 9 14 10.3431 14 12C14 13.6569 15.3431 15 17 15Z" fill="#1A237E"/>
</g>
</g>
<defs>
<clipPath id="clip0_3754_27922">
<rect width="24" height="24" fill="white"/>
</clipPath>
</defs>
</svg>
