<svg width="20" height="16" viewBox="0 0 20 16" fill="none" xmlns="http://www.w3.org/2000/svg">
<path d="M10 12.088C10.6333 12.0793 11.1 11.85 11.4 11.4L15.625 5.075C15.775 4.84167 15.7543 4.62933 15.563 4.438C15.3717 4.24667 15.159 4.22567 14.925 4.375L8.6 8.6C8.15 8.9 7.91267 9.35833 7.888 9.975C7.86333 10.5917 8.05067 11.1 8.45 11.5C8.84933 11.9 9.366 12.096 10 12.088ZM10 0C10.6 0 11.1917 0.0500001 11.775 0.15C12.3583 0.25 12.925 0.408333 13.475 0.625C13.7417 0.725 14.025 0.912667 14.325 1.188C14.625 1.46333 14.7083 1.72567 14.575 1.975C14.4417 2.22433 14.1417 2.391 13.675 2.475C13.2083 2.559 12.8333 2.55067 12.55 2.45C12.1333 2.3 11.7127 2.18767 11.288 2.113C10.8633 2.03833 10.434 2.00067 10 2C7.78333 2 5.89567 2.77933 4.337 4.338C2.77833 5.89667 1.99933 7.784 2 10C2 10.7 2.096 11.3917 2.288 12.075C2.48 12.7583 2.75067 13.4 3.1 14H16.9C17.2833 13.3667 17.5627 12.7083 17.738 12.025C17.9133 11.3417 18.0007 10.6333 18 9.9C18 9.46667 17.9623 9.04167 17.887 8.625C17.8117 8.20833 17.6993 7.8 17.55 7.4C17.45 7.11667 17.4333 6.84167 17.5 6.575C17.5667 6.30833 17.7167 6.08333 17.95 5.9C18.1667 5.73333 18.4043 5.68333 18.663 5.75C18.9217 5.81667 19.1007 5.96667 19.2 6.2C19.45 6.78333 19.6417 7.37933 19.775 7.988C19.9083 8.59667 19.9833 9.21733 20 9.85C20.0167 10.8 19.9083 11.7083 19.675 12.575C19.4417 13.4417 19.1 14.2667 18.65 15.05C18.4667 15.35 18.2167 15.5833 17.9 15.75C17.5833 15.9167 17.25 16 16.9 16H3.1C2.75 16 2.41667 15.9167 2.1 15.75C1.78333 15.5833 1.53333 15.35 1.35 15.05C0.916667 14.3 0.583333 13.5043 0.35 12.663C0.116667 11.8217 0 10.934 0 10C0 8.61667 0.262667 7.321 0.788 6.113C1.31333 4.905 2.03 3.84667 2.938 2.938C3.846 2.02933 4.90833 1.31267 6.125 0.788C7.34167 0.263333 8.63333 0.000666667 10 0Z" fill="#1A237E"/>
</svg>
